<?xml version="1.0" encoding="UTF-8" standalone="no"?><!DOCTYPE svg PUBLIC "-//W3C//DTD SVG 1.1//EN" "http://www.w3.org/Graphics/SVG/1.1/DTD/svg11.dtd"><svg width="100%" height="100%" viewBox="0 0 512 512" version="1.1" xmlns="http://www.w3.org/2000/svg" xmlns:xlink="http://www.w3.org/1999/xlink" xml:space="preserve" xmlns:serif="http://www.serif.com/" style="fill-rule:evenodd;clip-rule:evenodd;stroke-linejoin:round;stroke-miterlimit:2;"><path d="M349.33,69.33c51.147,0.153 93.187,42.193 93.34,93.34l0,186.66c-0.153,51.147 -42.193,93.187 -93.34,93.34l-186.66,0c-51.147,-0.153 -93.187,-42.193 -93.34,-93.34l0,-186.66c0.153,-51.147 42.193,-93.187 93.34,-93.34l186.66,-0m0,-37.33l-186.66,-0c-71.87,-0 -130.67,58.8 -130.67,130.67l0,186.66c0,71.87 58.8,130.67 130.67,130.67l186.66,-0c71.87,-0 130.67,-58.8 130.67,-130.67l0,-186.66c0,-71.87 -58.8,-130.67 -130.67,-130.67Z" style="fill:#fff7f7;fill-rule:nonzero;"/><path d="M377.33,162.67c-15.36,-0 -28,-12.64 -28,-28c0,-15.36 12.64,-28 28,-28c15.36,-0 28,12.64 28,28c0,0.02 0,0.04 0,0.06c0,15.327 -12.613,27.94 -27.94,27.94c-0.02,0 -0.04,0 -0.06,-0Zm-121.33,18.66c40.963,-0 74.67,33.707 74.67,74.67c0,40.963 -33.707,74.67 -74.67,74.67c-40.963,0 -74.67,-33.707 -74.67,-74.67c0.044,-40.946 33.724,-74.626 74.67,-74.67m0,-37.33c-61.441,0 -112,50.559 -112,112c0,61.441 50.559,112 112,112c61.441,0 112,-50.559 112,-112c0,-61.441 -50.559,-112 -112,-112Z" style="fill:#fff;fill-rule:nonzero;"/></svg>