<?xml version="1.0" encoding="UTF-8" standalone="no"?><!DOCTYPE svg PUBLIC "-//W3C//DTD SVG 1.1//EN" "http://www.w3.org/Graphics/SVG/1.1/DTD/svg11.dtd"><svg width="100%" height="100%" viewBox="0 0 512 512" version="1.1" xmlns="http://www.w3.org/2000/svg" xmlns:xlink="http://www.w3.org/1999/xlink" xml:space="preserve" xmlns:serif="http://www.serif.com/" style="fill-rule:evenodd;clip-rule:evenodd;stroke-linejoin:round;stroke-miterlimit:2;"><path d="M496,109.5c-18.005,7.823 -37.056,12.978 -56.55,15.3c20.481,-11.993 35.895,-31.06 43.33,-53.6c-19.369,11.326 -40.525,19.273 -62.56,23.5c-18.744,-19.644 -44.758,-30.75 -71.91,-30.7c-54.42,0 -98.46,43.4 -98.46,96.9c-0.039,7.442 0.814,14.861 2.54,22.1c-78.868,-3.697 -152.626,-40.504 -203,-101.3c-8.744,14.74 -13.369,31.562 -13.39,48.7c0,33.6 17.53,63.3 44,80.7c-15.682,-0.372 -31.045,-4.523 -44.78,-12.1l0,1.2c0,47 34,86.1 79,95c-8.462,2.256 -17.182,3.399 -25.94,3.4c-6.214,0.011 -12.414,-0.592 -18.51,-1.8c12.51,38.5 48.92,66.5 92.05,67.3c-35.04,27.004 -78.082,41.607 -122.32,41.5c-7.854,-0.012 -15.7,-0.479 -23.5,-1.4c45.007,28.739 97.34,43.945 150.74,43.8c181.36,0 280.44,-147.7 280.44,-275.8c0,-4.2 -0.11,-8.4 -0.31,-12.5c19.231,-13.679 35.868,-30.679 49.13,-50.2Z" style="fill:#fff;fill-rule:nonzero;"/></svg>